<svg width="30" height="70" viewBox="0 0 30 70" fill="none" xmlns="http://www.w3.org/2000/svg">
<path d="M0 41.9938C0 43.5514 1.24204 44.7664 2.8344 44.7664C4.3949 44.7664 5.63695 43.5514 5.63695 41.9938V29.9999C5.63695 29.4393 6.11466 29.0032 6.68791 29.0032C7.26115 29.0032 7.70702 29.4393 7.70702 29.9999V66.324C7.70702 68.0062 9.10829 69.3458 10.828 69.3458C12.5478 69.3458 13.9491 68.0062 13.9491 66.324V44.2369C13.9491 43.6761 14.4268 43.1776 15 43.1776C15.5733 43.1776 16.0828 43.6761 16.0828 44.2369V66.324C16.0828 68.0062 17.4523 69.3458 19.172 69.3458C20.8918 69.3458 22.293 68.0062 22.293 66.324V29.9999C22.293 29.4393 22.7389 29.0032 23.3122 29.0032C23.8853 29.0032 24.3632 29.4393 24.3632 29.9999V41.9938C24.3632 43.5514 25.605 44.7664 27.1656 44.7664C28.7579 44.7664 30 43.5514 30 41.9938V28.5982C30 21.7135 24.8409 17.1651 17.293 17.1651H12.707C5.15925 17.1651 0 21.7135 0 28.5982V41.9938ZM15 13.5826C18.8536 13.5826 21.9428 10.5608 21.9428 6.79129C21.9428 3.02181 18.8536 0 15 0C11.1465 0 8.05733 3.02181 8.05733 6.79129C8.05733 10.5608 11.1465 13.5826 15 13.5826Z" fill="white"/>
</svg>
