<svg width="100" height="100" viewBox="0 0 100 100" fill="none" xmlns="http://www.w3.org/2000/svg">
<path d="M96.2231 40.8814C92.9089 40.8814 90.0164 42.6555 88.4197 45.3016C86.3875 46.7362 83.6398 47.6207 80.6062 47.6207C75.9992 47.6207 72.0386 45.5877 70.2707 42.6719C70.0498 42.0651 69.8017 41.4729 69.5305 40.8939C68.6949 37.575 70.049 33.3146 73.3228 30.0407C75.4681 27.8954 78.0384 26.5793 80.4883 26.1537C83.487 26.8962 86.7888 26.1056 89.1318 23.761C92.6916 20.1996 79.7325 7.36831 76.237 10.8662C73.8947 13.2093 73.105 16.5094 73.8443 19.5091C73.4211 21.9613 72.105 24.5322 69.9573 26.6761C66.6951 29.9391 62.4515 31.301 59.1358 30.4834C58.556 30.2113 57.9615 29.9602 57.3539 29.7401C54.4256 27.9791 52.3795 24.0169 52.3795 19.3952C52.3795 16.3616 53.2631 13.6117 54.6971 11.5793C57.3416 9.98266 59.1172 7.08931 59.1172 3.77673C59.1172 -1.25891 40.8814 -1.25891 40.8814 3.77673C40.8814 7.09011 42.6571 9.98502 45.3024 11.5793C46.737 13.6115 47.6221 16.3616 47.6221 19.3952C47.6221 24.0022 45.5891 27.9628 42.6718 29.7307C42.0664 29.9485 41.4758 30.1966 40.8984 30.4671C37.5765 31.3049 33.3159 29.9501 30.0412 26.6763C27.8965 24.5316 26.5774 21.9615 26.1542 19.5108C26.8967 16.5106 26.1038 13.2119 23.763 10.8674C20.2016 7.30596 7.30608 20.2007 10.8659 23.7621C13.2112 26.1066 16.5107 26.8965 19.5094 26.1554C21.9616 26.5786 24.5317 27.8955 26.6772 30.0409C29.9418 33.3038 31.3021 37.5514 30.4821 40.8647C30.2108 41.4445 29.9612 42.0382 29.7419 42.6458C27.977 45.5749 24.0149 47.6218 19.3962 47.6218C16.3626 47.6218 13.6127 46.7374 11.5795 45.3021C9.98131 42.6576 7.09189 40.8833 3.77614 40.8833C-1.25871 40.8833 -1.25871 59.1191 3.77614 59.1191C7.09189 59.1191 9.98284 57.3449 11.5795 54.6989C13.6125 53.2658 16.3632 52.3776 19.3962 52.3776C24.0032 52.3776 27.9623 54.413 29.731 57.3288C29.9495 57.9341 30.1976 58.5247 30.4665 59.1029C31.3043 62.4218 29.9495 66.6838 26.6771 69.9585C24.5302 72.1054 21.9615 73.4223 19.5093 73.8455C16.5106 73.1045 13.2111 73.8943 10.8658 76.2366C7.37107 79.7345 20.2015 92.6936 23.7629 89.1338C26.1045 86.7893 26.8966 83.489 26.1541 80.4909C26.5773 78.0387 27.8964 75.4678 30.0411 73.3239C33.3033 70.0617 37.5476 68.699 40.861 69.5166C41.4423 69.7887 42.0376 70.0398 42.6468 70.2599C45.575 72.0209 47.6211 75.9831 47.6211 80.6048C47.6211 83.6384 46.7352 86.3883 45.3014 88.4199C42.6561 90.0181 40.8804 92.9099 40.8804 96.2233C40.8804 101.259 59.1162 101.259 59.1162 96.2233C59.1162 92.9099 57.3429 90.0166 54.6982 88.4199C53.2613 86.3885 52.3785 83.6384 52.3785 80.6048C52.3785 75.9978 54.4099 72.0379 57.3267 70.2693C57.932 70.0491 58.5242 69.8011 59.1047 69.5314C62.4236 68.6943 66.6848 70.0491 69.9571 73.3237C72.1024 75.4684 73.4209 78.0385 73.8441 80.4908C73.1016 83.4887 73.8945 86.7889 76.2369 89.1336C79.7983 92.6929 92.6932 79.7979 89.1316 76.2365C86.7885 73.8942 83.4869 73.1045 80.4903 73.8454C78.0381 73.4222 75.4672 72.1053 73.3225 69.9584C70.0603 66.6968 68.6992 62.4518 69.5153 59.1385C69.7889 58.5572 70.0384 57.9627 70.2601 57.355C72.0203 54.4252 75.9833 52.3783 80.6058 52.3783C83.6394 52.3783 86.3871 53.2658 88.4193 54.6996C90.0175 57.3441 92.9085 59.1197 96.2227 59.1197C101.259 59.1174 101.259 40.8816 96.2227 40.8816L96.2231 40.8814ZM49.9997 67.6301C45.0339 67.6301 40.5546 65.5699 37.349 62.2667C34.2696 59.0936 32.3691 54.7703 32.3691 49.9989C32.3691 40.261 40.2624 32.3677 49.9995 32.3677C54.7709 32.3677 59.0934 34.2713 62.2673 37.3498C65.5705 40.5538 67.6307 45.0323 67.6307 49.9989C67.6307 59.7368 59.7367 67.6301 49.9995 67.6301H49.9997Z" fill="#F44336"/>
</svg>
